<?xml version="1.0" standalone="no"?>
<!DOCTYPE svg PUBLIC "-//W3C//DTD SVG 20010904//EN"
 "http://www.w3.org/TR/2001/REC-SVG-20010904/DTD/svg10.dtd">
<svg version="1.0" xmlns="http://www.w3.org/2000/svg"
 width="1080.000000pt" height="1080.000000pt" viewBox="0 0 1080.000000 1080.000000"
 preserveAspectRatio="xMidYMid meet">
<metadata>
Created by potrace 1.14, written by Peter Selinger 2001-2017
</metadata>
<g transform="translate(0.000000,1080.000000) scale(0.100000,-0.100000)"
fill="#000000" stroke="none">
<path d="M0 5400 l0 -5400 5400 0 5400 0 0 5400 0 5400 -5400 0 -5400 0 0
-5400z m6124 1180 c23 -11 52 -36 66 -57 24 -35 25 -43 28 -220 l4 -183 30 21
c47 34 142 59 221 59 171 0 304 -76 368 -207 50 -103 52 -124 56 -545 l4 -398
-195 0 -196 0 0 358 c0 411 0 410 -82 450 -56 28 -104 23 -150 -16 -57 -48
-58 -59 -58 -442 l0 -350 -190 0 -190 0 2 718 3 718 25 37 c13 19 40 45 60 56
47 28 139 28 194 1z m1720 -3 c54 -30 79 -76 80 -146 1 -73 -25 -118 -84 -149
-39 -20 -56 -23 -123 -19 -86 4 -115 19 -154 77 -17 24 -23 47 -23 89 0 115
64 171 195 171 54 0 79 -5 109 -23z m-5761 -51 c90 -33 116 -88 117 -243 l0
-113 50 0 c79 0 144 -18 173 -48 37 -38 54 -109 39 -159 -23 -78 -86 -112
-204 -113 l-58 0 0 -239 c0 -284 -5 -272 104 -268 110 3 158 -38 160 -136 1
-70 -28 -115 -96 -153 -50 -28 -59 -29 -173 -29 -141 0 -207 21 -269 83 -86
85 -96 133 -96 470 l0 272 -37 0 c-120 0 -185 58 -185 161 0 93 56 147 162
156 l60 6 0 114 c0 126 10 162 56 204 52 48 125 60 197 35z m6679 -342 c169
-41 288 -149 337 -308 45 -147 38 -449 -15 -581 -53 -131 -182 -232 -339 -266
-78 -17 -245 -17 -315 0 -192 46 -321 173 -361 356 -18 81 -18 382 0 455 52
212 202 335 441 359 91 9 176 4 252 -15z m-5589 1 c127 -27 227 -98 279 -200
49 -93 51 -117 55 -537 l4 -398 -150 0 -150 0 -6 34 -7 33 -49 -33 c-76 -51
-145 -67 -274 -62 -126 4 -191 27 -264 94 -85 77 -126 213 -103 346 36 209
185 297 500 298 72 0 132 2 132 5 0 17 -30 73 -48 89 -50 44 -176 40 -294 -10
-73 -31 -134 -31 -179 -1 -95 63 -86 195 17 266 112 77 364 113 537 76z m1152
-5 c95 -24 148 -54 204 -115 91 -98 134 -249 129 -450 l-3 -120 -329 -3 -328
-2 6 -28 c28 -115 190 -156 387 -97 104 32 155 28 198 -16 36 -35 49 -100 31
-153 -55 -167 -475 -235 -727 -117 -130 61 -225 185 -253 328 -19 93 -8 413
15 478 56 154 182 263 347 299 96 21 231 19 323 -4z m1193 -10 c123 -43 198
-130 189 -219 -13 -115 -119 -159 -249 -102 -102 46 -204 36 -258 -25 -38 -43
-45 -82 -45 -234 1 -153 15 -192 86 -228 60 -32 158 -26 242 13 32 15 75 29
95 32 73 8 152 -61 152 -134 0 -147 -173 -253 -416 -253 -282 0 -470 126 -529
355 -22 86 -20 386 3 476 44 167 168 283 356 331 99 25 285 19 374 -12z m2290
5 c44 -19 78 -49 100 -90 15 -27 17 -87 20 -532 l3 -503 -195 0 -196 0 0 500
c0 402 3 507 14 533 37 87 159 131 254 92z m-515 -789 c50 -18 76 -42 98 -91
34 -73 16 -180 -39 -228 -68 -61 -216 -61 -286 1 -30 27 -56 93 -56 142 0 50
27 116 58 143 30 27 90 46 142 46 25 0 62 -6 83 -13z"/>
<path d="M8575 5885 c-5 -2 -22 -6 -36 -9 -15 -3 -40 -20 -57 -37 -43 -44 -55
-108 -50 -265 3 -106 7 -136 24 -164 21 -38 92 -80 134 -80 42 0 113 42 135
80 18 31 20 53 20 200 0 147 -2 169 -20 198 -29 48 -108 89 -150 77z"/>
<path d="M2925 5468 c-32 -17 -45 -39 -45 -79 0 -52 35 -79 102 -79 96 0 148
40 156 120 l5 50 -99 0 c-55 0 -108 -6 -119 -12z"/>
<path d="M4071 5873 c-22 -11 -40 -31 -52 -57 -35 -78 -38 -76 132 -76 l152 0
-6 37 c-7 44 -34 83 -68 100 -34 18 -118 16 -158 -4z"/>
</g>
</svg>
